<svg width="20" height="20" viewBox="0 0 20 20" fill="none" xmlns="http://www.w3.org/2000/svg">
<path d="M17.6637 6.81868C17.5477 6.90869 15.4995 8.06281 15.4995 10.6291C15.4995 13.5974 18.1058 14.6475 18.1838 14.6735C18.1718 14.7375 17.7697 16.1116 16.8096 17.5118C15.9535 18.7439 15.0595 19.974 13.6993 19.974C12.3392 19.974 11.9892 19.1839 10.419 19.1839C8.88884 19.1839 8.34479 20 7.10067 20C5.85654 20 4.98845 18.8599 3.99035 17.4597C2.83424 15.8156 1.90015 13.2613 1.90015 10.8371C1.90015 6.9487 4.4284 4.88649 6.91665 4.88649C8.23878 4.88649 9.34089 5.75458 10.171 5.75458C10.961 5.75458 12.1932 4.83448 13.6973 4.83448C14.2674 4.83448 16.3156 4.88649 17.6637 6.81868ZM12.9833 3.18832C13.6053 2.45025 14.0454 1.42614 14.0454 0.40204C14.0454 0.260026 14.0334 0.116012 14.0074 0C12.9953 0.0380038 11.7911 0.674068 11.0651 1.51615C10.495 2.16422 9.96295 3.18832 9.96295 4.22642C9.96295 4.38244 9.98895 4.53845 10.001 4.58846C10.065 4.60046 10.169 4.61446 10.273 4.61446C11.1811 4.61446 12.3232 4.0064 12.9833 3.18832Z" fill="black"/>
</svg>
