<svg width="20" height="19" viewBox="0 0 20 19" fill="none" xmlns="http://www.w3.org/2000/svg">
<path d="M18.2839 7.84803L10.5337 7.84766C10.1915 7.84766 9.91406 8.12502 9.91406 8.46725V10.9431C9.91406 11.2852 10.1915 11.5627 10.5337 11.5627H14.8981C14.4202 12.8029 13.5282 13.8416 12.3902 14.5016L14.2511 17.7231C17.2364 15.9966 19.0013 12.9673 19.0013 9.57626C19.0013 9.09342 18.9657 8.74825 18.8945 8.3596C18.8404 8.06431 18.584 7.84803 18.2839 7.84803Z" fill="#167EE6"/>
<path d="M9.50063 15.2835C7.36477 15.2835 5.50019 14.1165 4.49876 12.3896L1.27734 14.2464C2.9167 17.0877 5.98775 19.001 9.50063 19.001C11.2239 19.001 12.85 18.537 14.2508 17.7284V17.724L12.3898 14.5024C11.5386 14.9961 10.5535 15.2835 9.50063 15.2835Z" fill="#12B347"/>
<path d="M14.2501 17.7279V17.7235L12.3892 14.502C11.5379 14.9956 10.5529 15.283 9.5 15.283V19.0005C11.2233 19.0005 12.8494 18.5365 14.2501 17.7279Z" fill="#0F993E"/>
<path d="M3.71751 9.50061C3.71751 8.44782 4.00482 7.46287 4.49843 6.61167L1.27701 4.75488C0.463956 6.15124 0 7.7729 0 9.50061C0 11.2283 0.463956 12.85 1.27701 14.2463L4.49843 12.3896C4.00482 11.5384 3.71751 10.5534 3.71751 9.50061Z" fill="#FFD500"/>
<path d="M9.50063 3.71751C10.8934 3.71751 12.1728 4.21241 13.172 5.03564C13.4186 5.23871 13.7769 5.22405 14.0027 4.99823L15.7569 3.24402C16.0131 2.98781 15.9949 2.56842 15.7212 2.33099C14.0469 0.878517 11.8685 0 9.50063 0C5.98774 0 2.9167 1.91331 1.27734 4.75456L4.49876 6.61135C5.50019 4.88449 7.36477 3.71751 9.50063 3.71751Z" fill="#FF4B26"/>
<path d="M13.1714 5.03564C13.4179 5.23871 13.7763 5.22405 14.0021 4.99823L15.7563 3.24402C16.0125 2.98781 15.9942 2.56842 15.7205 2.33099C14.0463 0.87848 11.8679 0 9.5 0V3.71751C10.8928 3.71751 12.1721 4.21241 13.1714 5.03564Z" fill="#D93F21"/>
</svg>
